<?xml version="1.0" encoding="iso-8859-1"?>
<!-- Generator: Adobe Illustrator 19.0.0, SVG Export Plug-In . SVG Version: 6.00 Build 0)  -->
<svg xmlns="http://www.w3.org/2000/svg" xmlns:xlink="http://www.w3.org/1999/xlink" version="1.1" id="Layer_1" x="0px" y="0px" viewBox="0 0 511.978 511.978" style="enable-background:new 0 0 511.978 511.978;" xml:space="preserve" width="512px" height="512px">
<g>
	<g>
		<path d="M351.894,0c-23.499,0-42.623,19.124-42.623,42.623v90.965c-6.266-3.625-13.547-5.719-21.312-5.719    c-12.718,0-24.155,5.609-31.968,14.468c-7.812-8.859-19.249-14.468-31.967-14.468c-7.766,0-15.047,2.094-21.313,5.719V42.623    C202.71,19.124,183.586,0,160.088,0c-23.499,0-42.623,19.124-42.623,42.623v181.149c0,24.749,6.609,49.045,19.108,70.262    c11.078,18.781,26.499,34.748,44.826,46.482v21.797h-10.655c-5.891,0-10.656,4.766-10.656,10.656v31.967h-10.655    c-5.891,0-10.656,4.766-10.656,10.656c0,5.875,4.766,10.654,10.656,10.654h10.655v31.969c0,5.875,4.766,10.656,10.656,10.656    h10.655v32.451c0,5.891,4.766,10.656,10.656,10.656h127.87c5.89,0,10.655-4.766,10.655-10.656v-32.451h10.655    c5.891,0,10.656-4.781,10.656-10.656v-31.969h10.656c5.891,0,10.656-4.779,10.656-10.654c0-5.891-4.766-10.656-10.656-10.656    H351.89V372.97c0-5.891-4.766-10.656-10.656-10.656h-10.655v-21.797c18.327-11.734,33.749-27.701,44.827-46.482    c12.499-21.217,19.107-45.513,19.107-70.262V42.623C394.517,19.124,375.394,0,351.894,0z M309.272,490.668h-0.001H202.713v-21.795    h106.559V490.668z M330.582,383.624v63.936H181.4v-63.936H330.582z M373.21,223.773h-0.003c0,20.952-5.578,41.499-16.156,59.434    c-10.266,17.422-24.952,31.984-42.451,42.109c-3.297,1.904-5.328,5.42-5.328,9.217v27.781H202.713v-27.781    c0-3.797-2.031-7.313-5.327-9.217c-17.5-10.125-32.187-24.688-42.452-42.109c-10.577-17.936-16.155-38.482-16.155-59.434V42.623    c0-11.75,9.563-21.312,21.312-21.312c11.75,0,21.312,9.562,21.312,21.312v127.87v21.312c0,5.891,4.766,10.656,10.656,10.656    s10.655-4.765,10.655-10.656v-21.312c0-11.75,9.563-21.312,21.313-21.312c11.749,0,21.312,9.562,21.312,21.312v21.312    c0,5.891,4.766,10.656,10.655,10.656c5.891,0,10.656-4.765,10.656-10.656v-21.312c0-11.75,9.562-21.312,21.312-21.312    c11.749,0,21.312,9.562,21.312,21.312v21.312c0,5.891,4.766,10.656,10.656,10.656s10.655-4.765,10.655-10.656v-21.312V42.623    c0-11.75,9.562-21.312,21.312-21.312s21.313,9.562,21.313,21.312V223.773z" fill="#542525"/>
	</g>
</g>
<g>
	<g>
		<path d="M213.369,404.937c-5.891,0-10.656,4.766-10.656,10.656c0,5.875,4.766,10.654,10.656,10.654s10.656-4.779,10.656-10.654    C224.025,409.703,219.26,404.937,213.369,404.937z" fill="#542525"/>
	</g>
</g>
<g>
	<g>
		<path d="M255.992,404.937c-5.89,0-10.655,4.766-10.655,10.656c0,5.875,4.766,10.654,10.655,10.654    c5.891,0,10.656-4.779,10.656-10.654C266.647,409.703,261.882,404.937,255.992,404.937z" fill="#542525"/>
	</g>
</g>
<g>
	<g>
		<path d="M298.614,404.937c-5.891,0-10.655,4.766-10.655,10.656c0,5.875,4.765,10.654,10.655,10.654    c5.89,0,10.656-4.779,10.656-10.654C309.27,409.703,304.506,404.937,298.614,404.937z" fill="#542525"/>
	</g>
</g>
<g>
</g>
<g>
</g>
<g>
</g>
<g>
</g>
<g>
</g>
<g>
</g>
<g>
</g>
<g>
</g>
<g>
</g>
<g>
</g>
<g>
</g>
<g>
</g>
<g>
</g>
<g>
</g>
<g>
</g>
</svg>
